<mxfile host="app.diagrams.net" agent="Mozilla/5.0 (Windows NT 10.0; Win64; x64) AppleWebKit/537.36 (KHTML, like Gecko) Chrome/138.0.0.0 Safari/537.36" version="27.2.0">
  <diagram name="ページ1" id="B-GNWx2MuU9aqVs99sJ8">
    <mxGraphModel dx="1117" dy="644" grid="1" gridSize="10" guides="1" tooltips="1" connect="1" arrows="1" fold="1" page="1" pageScale="1" pageWidth="827" pageHeight="1169" math="0" shadow="0">
      <root>
        <mxCell id="0" />
        <mxCell id="1" parent="0" />
        <mxCell id="EKYv2EqKclYrramwmxpK-1" value="VPC" style="points=[[0,0],[0.25,0],[0.5,0],[0.75,0],[1,0],[1,0.25],[1,0.5],[1,0.75],[1,1],[0.75,1],[0.5,1],[0.25,1],[0,1],[0,0.75],[0,0.5],[0,0.25]];outlineConnect=0;gradientColor=none;html=1;whiteSpace=wrap;fontSize=12;fontStyle=0;container=1;pointerEvents=0;collapsible=0;recursiveResize=0;shape=mxgraph.aws4.group;grIcon=mxgraph.aws4.group_vpc2;strokeColor=#8C4FFF;fillColor=none;verticalAlign=top;align=left;spacingLeft=30;fontColor=#AAB7B8;dashed=0;" vertex="1" parent="1">
          <mxGeometry x="280" y="100" width="810" height="770" as="geometry" />
        </mxCell>
        <mxCell id="EKYv2EqKclYrramwmxpK-41" value="IGW" style="text;html=1;align=center;verticalAlign=middle;resizable=0;points=[];autosize=1;strokeColor=none;fillColor=none;" vertex="1" parent="EKYv2EqKclYrramwmxpK-1">
          <mxGeometry x="380" y="38" width="50" height="30" as="geometry" />
        </mxCell>
        <mxCell id="EKYv2EqKclYrramwmxpK-2" value="Availability Zone A" style="fillColor=none;strokeColor=#147EBA;dashed=1;verticalAlign=top;fontStyle=0;fontColor=#147EBA;whiteSpace=wrap;html=1;" vertex="1" parent="EKYv2EqKclYrramwmxpK-1">
          <mxGeometry x="122.5" y="100" width="285" height="670" as="geometry" />
        </mxCell>
        <mxCell id="EKYv2EqKclYrramwmxpK-6" value="Public subnet" style="points=[[0,0],[0.25,0],[0.5,0],[0.75,0],[1,0],[1,0.25],[1,0.5],[1,0.75],[1,1],[0.75,1],[0.5,1],[0.25,1],[0,1],[0,0.75],[0,0.5],[0,0.25]];outlineConnect=0;gradientColor=none;html=1;whiteSpace=wrap;fontSize=12;fontStyle=0;container=1;pointerEvents=0;collapsible=0;recursiveResize=0;shape=mxgraph.aws4.group;grIcon=mxgraph.aws4.group_security_group;grStroke=0;strokeColor=#7AA116;fillColor=#F2F6E8;verticalAlign=top;align=left;spacingLeft=30;fontColor=#248814;dashed=0;" vertex="1" parent="EKYv2EqKclYrramwmxpK-1">
          <mxGeometry x="157.5" y="170" width="220" height="130" as="geometry" />
        </mxCell>
        <mxCell id="EKYv2EqKclYrramwmxpK-7" value="Private subnet" style="points=[[0,0],[0.25,0],[0.5,0],[0.75,0],[1,0],[1,0.25],[1,0.5],[1,0.75],[1,1],[0.75,1],[0.5,1],[0.25,1],[0,1],[0,0.75],[0,0.5],[0,0.25]];outlineConnect=0;gradientColor=none;html=1;whiteSpace=wrap;fontSize=12;fontStyle=0;container=1;pointerEvents=0;collapsible=0;recursiveResize=0;shape=mxgraph.aws4.group;grIcon=mxgraph.aws4.group_security_group;grStroke=0;strokeColor=#00A4A6;fillColor=#E6F6F7;verticalAlign=top;align=left;spacingLeft=30;fontColor=#147EBA;dashed=0;" vertex="1" parent="EKYv2EqKclYrramwmxpK-1">
          <mxGeometry x="157.5" y="335" width="220" height="375" as="geometry" />
        </mxCell>
        <mxCell id="EKYv2EqKclYrramwmxpK-12" value="" style="sketch=0;points=[[0,0,0],[0.25,0,0],[0.5,0,0],[0.75,0,0],[1,0,0],[0,1,0],[0.25,1,0],[0.5,1,0],[0.75,1,0],[1,1,0],[0,0.25,0],[0,0.5,0],[0,0.75,0],[1,0.25,0],[1,0.5,0],[1,0.75,0]];outlineConnect=0;fontColor=#232F3E;fillColor=#ED7100;strokeColor=#ffffff;dashed=0;verticalLabelPosition=bottom;verticalAlign=top;align=center;html=1;fontSize=12;fontStyle=0;aspect=fixed;shape=mxgraph.aws4.resourceIcon;resIcon=mxgraph.aws4.ec2;" vertex="1" parent="EKYv2EqKclYrramwmxpK-7">
          <mxGeometry x="71" y="55" width="78" height="78" as="geometry" />
        </mxCell>
        <mxCell id="EKYv2EqKclYrramwmxpK-13" value="" style="sketch=0;points=[[0,0,0],[0.25,0,0],[0.5,0,0],[0.75,0,0],[1,0,0],[0,1,0],[0.25,1,0],[0.5,1,0],[0.75,1,0],[1,1,0],[0,0.25,0],[0,0.5,0],[0,0.75,0],[1,0.25,0],[1,0.5,0],[1,0.75,0]];outlineConnect=0;fontColor=#232F3E;fillColor=#C925D1;strokeColor=#ffffff;dashed=0;verticalLabelPosition=bottom;verticalAlign=top;align=center;html=1;fontSize=12;fontStyle=0;aspect=fixed;shape=mxgraph.aws4.resourceIcon;resIcon=mxgraph.aws4.rds;" vertex="1" parent="EKYv2EqKclYrramwmxpK-7">
          <mxGeometry x="71" y="225" width="78" height="78" as="geometry" />
        </mxCell>
        <mxCell id="EKYv2EqKclYrramwmxpK-33" value="EC2&lt;div&gt;(Web・APサーバー)&lt;/div&gt;" style="text;html=1;align=center;verticalAlign=middle;resizable=0;points=[];autosize=1;strokeColor=none;fillColor=none;" vertex="1" parent="EKYv2EqKclYrramwmxpK-7">
          <mxGeometry x="90" y="133" width="130" height="40" as="geometry" />
        </mxCell>
        <mxCell id="EKYv2EqKclYrramwmxpK-37" value="RDS&lt;div&gt;(DBサーバー)&lt;/div&gt;&lt;div&gt;Primary&lt;/div&gt;" style="text;html=1;align=center;verticalAlign=middle;resizable=0;points=[];autosize=1;strokeColor=none;fillColor=none;" vertex="1" parent="EKYv2EqKclYrramwmxpK-7">
          <mxGeometry x="60" y="303" width="100" height="60" as="geometry" />
        </mxCell>
        <mxCell id="EKYv2EqKclYrramwmxpK-14" value="Availability Zone B" style="fillColor=none;strokeColor=#147EBA;dashed=1;verticalAlign=top;fontStyle=0;fontColor=#147EBA;whiteSpace=wrap;html=1;" vertex="1" parent="EKYv2EqKclYrramwmxpK-1">
          <mxGeometry x="427.5" y="100" width="260" height="670" as="geometry" />
        </mxCell>
        <mxCell id="EKYv2EqKclYrramwmxpK-15" value="Public subnet" style="points=[[0,0],[0.25,0],[0.5,0],[0.75,0],[1,0],[1,0.25],[1,0.5],[1,0.75],[1,1],[0.75,1],[0.5,1],[0.25,1],[0,1],[0,0.75],[0,0.5],[0,0.25]];outlineConnect=0;gradientColor=none;html=1;whiteSpace=wrap;fontSize=12;fontStyle=0;container=1;pointerEvents=0;collapsible=0;recursiveResize=0;shape=mxgraph.aws4.group;grIcon=mxgraph.aws4.group_security_group;grStroke=0;strokeColor=#7AA116;fillColor=#F2F6E8;verticalAlign=top;align=left;spacingLeft=30;fontColor=#248814;dashed=0;" vertex="1" parent="EKYv2EqKclYrramwmxpK-1">
          <mxGeometry x="437.5" y="170" width="220" height="130" as="geometry" />
        </mxCell>
        <mxCell id="EKYv2EqKclYrramwmxpK-16" value="Private subnet" style="points=[[0,0],[0.25,0],[0.5,0],[0.75,0],[1,0],[1,0.25],[1,0.5],[1,0.75],[1,1],[0.75,1],[0.5,1],[0.25,1],[0,1],[0,0.75],[0,0.5],[0,0.25]];outlineConnect=0;gradientColor=none;html=1;whiteSpace=wrap;fontSize=12;fontStyle=0;container=1;pointerEvents=0;collapsible=0;recursiveResize=0;shape=mxgraph.aws4.group;grIcon=mxgraph.aws4.group_security_group;grStroke=0;strokeColor=#00A4A6;fillColor=#E6F6F7;verticalAlign=top;align=left;spacingLeft=30;fontColor=#147EBA;dashed=0;" vertex="1" parent="EKYv2EqKclYrramwmxpK-1">
          <mxGeometry x="437.5" y="335" width="220" height="375" as="geometry" />
        </mxCell>
        <mxCell id="EKYv2EqKclYrramwmxpK-17" value="" style="sketch=0;points=[[0,0,0],[0.25,0,0],[0.5,0,0],[0.75,0,0],[1,0,0],[0,1,0],[0.25,1,0],[0.5,1,0],[0.75,1,0],[1,1,0],[0,0.25,0],[0,0.5,0],[0,0.75,0],[1,0.25,0],[1,0.5,0],[1,0.75,0]];outlineConnect=0;fontColor=#232F3E;fillColor=#ED7100;strokeColor=#ffffff;dashed=0;verticalLabelPosition=bottom;verticalAlign=top;align=center;html=1;fontSize=12;fontStyle=0;aspect=fixed;shape=mxgraph.aws4.resourceIcon;resIcon=mxgraph.aws4.ec2;" vertex="1" parent="EKYv2EqKclYrramwmxpK-16">
          <mxGeometry x="51" y="55" width="78" height="78" as="geometry" />
        </mxCell>
        <mxCell id="EKYv2EqKclYrramwmxpK-21" value="" style="sketch=0;outlineConnect=0;fontColor=#232F3E;gradientColor=none;fillColor=#C925D1;strokeColor=none;dashed=0;verticalLabelPosition=bottom;verticalAlign=top;align=center;html=1;fontSize=12;fontStyle=0;aspect=fixed;pointerEvents=1;shape=mxgraph.aws4.rds_multi_az;" vertex="1" parent="EKYv2EqKclYrramwmxpK-16">
          <mxGeometry x="60" y="235" width="78" height="58" as="geometry" />
        </mxCell>
        <mxCell id="EKYv2EqKclYrramwmxpK-39" value="RDS&lt;div&gt;Multi-AZ&lt;/div&gt;&lt;div&gt;Secondry&lt;/div&gt;" style="text;html=1;align=center;verticalAlign=middle;resizable=0;points=[];autosize=1;strokeColor=none;fillColor=none;" vertex="1" parent="EKYv2EqKclYrramwmxpK-16">
          <mxGeometry x="64" y="305" width="70" height="60" as="geometry" />
        </mxCell>
        <mxCell id="EKYv2EqKclYrramwmxpK-20" value="" style="sketch=0;outlineConnect=0;fontColor=#232F3E;gradientColor=none;fillColor=#8C4FFF;strokeColor=none;dashed=0;verticalLabelPosition=bottom;verticalAlign=top;align=center;html=1;fontSize=12;fontStyle=0;aspect=fixed;pointerEvents=1;shape=mxgraph.aws4.application_load_balancer;" vertex="1" parent="EKYv2EqKclYrramwmxpK-1">
          <mxGeometry x="351" y="195" width="105" height="105" as="geometry" />
        </mxCell>
        <mxCell id="EKYv2EqKclYrramwmxpK-28" value="" style="edgeStyle=orthogonalEdgeStyle;html=1;endArrow=none;elbow=vertical;startArrow=block;startFill=1;strokeColor=#545B64;rounded=0;exitX=0.5;exitY=0;exitDx=0;exitDy=0;exitPerimeter=0;" edge="1" parent="EKYv2EqKclYrramwmxpK-1" source="EKYv2EqKclYrramwmxpK-17" target="EKYv2EqKclYrramwmxpK-20">
          <mxGeometry width="100" relative="1" as="geometry">
            <mxPoint x="587.5" y="340" as="sourcePoint" />
            <mxPoint x="687.5" y="340" as="targetPoint" />
            <Array as="points">
              <mxPoint x="527.5" y="240" />
            </Array>
          </mxGeometry>
        </mxCell>
        <mxCell id="EKYv2EqKclYrramwmxpK-29" value="" style="edgeStyle=orthogonalEdgeStyle;html=1;endArrow=none;elbow=vertical;startArrow=block;startFill=1;strokeColor=#545B64;rounded=0;exitX=0.5;exitY=0;exitDx=0;exitDy=0;exitPerimeter=0;" edge="1" parent="EKYv2EqKclYrramwmxpK-1" source="EKYv2EqKclYrramwmxpK-12" target="EKYv2EqKclYrramwmxpK-20">
          <mxGeometry width="100" relative="1" as="geometry">
            <mxPoint x="267.5" y="370" as="sourcePoint" />
            <mxPoint x="687.5" y="420" as="targetPoint" />
            <Array as="points">
              <mxPoint x="267.5" y="240" />
            </Array>
          </mxGeometry>
        </mxCell>
        <mxCell id="EKYv2EqKclYrramwmxpK-31" value="" style="edgeStyle=orthogonalEdgeStyle;html=1;endArrow=none;elbow=vertical;startArrow=block;startFill=1;strokeColor=#545B64;rounded=0;entryX=0.5;entryY=1;entryDx=0;entryDy=0;entryPerimeter=0;exitX=0.5;exitY=0;exitDx=0;exitDy=0;exitPerimeter=0;" edge="1" parent="EKYv2EqKclYrramwmxpK-1" source="EKYv2EqKclYrramwmxpK-13" target="EKYv2EqKclYrramwmxpK-17">
          <mxGeometry width="100" relative="1" as="geometry">
            <mxPoint x="247.5" y="500" as="sourcePoint" />
            <mxPoint x="687.5" y="420" as="targetPoint" />
          </mxGeometry>
        </mxCell>
        <mxCell id="EKYv2EqKclYrramwmxpK-40" value="ALB" style="text;html=1;align=center;verticalAlign=middle;resizable=0;points=[];autosize=1;strokeColor=none;fillColor=none;" vertex="1" parent="EKYv2EqKclYrramwmxpK-1">
          <mxGeometry x="379" y="300" width="50" height="30" as="geometry" />
        </mxCell>
        <mxCell id="EKYv2EqKclYrramwmxpK-38" value="EC2&lt;div&gt;（Web・APサーバー)&lt;/div&gt;" style="text;html=1;align=center;verticalAlign=middle;resizable=0;points=[];autosize=1;strokeColor=none;fillColor=none;" vertex="1" parent="EKYv2EqKclYrramwmxpK-1">
          <mxGeometry x="517.5" y="470" width="140" height="40" as="geometry" />
        </mxCell>
        <mxCell id="EKYv2EqKclYrramwmxpK-30" value="" style="edgeStyle=orthogonalEdgeStyle;html=1;endArrow=none;elbow=vertical;startArrow=block;startFill=1;strokeColor=#545B64;rounded=0;exitX=0.5;exitY=0;exitDx=0;exitDy=0;exitPerimeter=0;" edge="1" parent="EKYv2EqKclYrramwmxpK-1" source="EKYv2EqKclYrramwmxpK-13">
          <mxGeometry width="100" relative="1" as="geometry">
            <mxPoint x="587.5" y="420" as="sourcePoint" />
            <mxPoint x="247.5" y="470" as="targetPoint" />
          </mxGeometry>
        </mxCell>
        <mxCell id="EKYv2EqKclYrramwmxpK-46" value="Security group" style="fillColor=none;strokeColor=#DD3522;verticalAlign=top;fontStyle=0;fontColor=#DD3522;whiteSpace=wrap;html=1;align=left;" vertex="1" parent="EKYv2EqKclYrramwmxpK-1">
          <mxGeometry x="40" y="322.5" width="740" height="400" as="geometry" />
        </mxCell>
        <mxCell id="EKYv2EqKclYrramwmxpK-42" value="" style="sketch=0;points=[[0,0,0],[0.25,0,0],[0.5,0,0],[0.75,0,0],[1,0,0],[0,1,0],[0.25,1,0],[0.5,1,0],[0.75,1,0],[1,1,0],[0,0.25,0],[0,0.5,0],[0,0.75,0],[1,0.25,0],[1,0.5,0],[1,0.75,0]];points=[[0,0,0],[0.25,0,0],[0.5,0,0],[0.75,0,0],[1,0,0],[0,1,0],[0.25,1,0],[0.5,1,0],[0.75,1,0],[1,1,0],[0,0.25,0],[0,0.5,0],[0,0.75,0],[1,0.25,0],[1,0.5,0],[1,0.75,0]];outlineConnect=0;fontColor=#232F3E;fillColor=#E7157B;strokeColor=#ffffff;dashed=0;verticalLabelPosition=bottom;verticalAlign=top;align=center;html=1;fontSize=12;fontStyle=0;aspect=fixed;shape=mxgraph.aws4.resourceIcon;resIcon=mxgraph.aws4.cloudwatch_2;" vertex="1" parent="1">
          <mxGeometry x="1171" y="190" width="78" height="78" as="geometry" />
        </mxCell>
        <mxCell id="EKYv2EqKclYrramwmxpK-43" value="CloudWatch&lt;div&gt;(ALB・EC2・RDSを監視)&lt;/div&gt;" style="text;html=1;align=center;verticalAlign=middle;resizable=0;points=[];autosize=1;strokeColor=none;fillColor=none;" vertex="1" parent="1">
          <mxGeometry x="1130" y="270" width="160" height="40" as="geometry" />
        </mxCell>
        <mxCell id="EKYv2EqKclYrramwmxpK-19" value="" style="sketch=0;outlineConnect=0;fontColor=#232F3E;gradientColor=none;fillColor=#8C4FFF;strokeColor=none;dashed=0;verticalLabelPosition=bottom;verticalAlign=top;align=center;html=1;fontSize=12;fontStyle=0;aspect=fixed;pointerEvents=1;shape=mxgraph.aws4.internet_gateway;" vertex="1" parent="1">
          <mxGeometry x="645" y="60" width="78" height="78" as="geometry" />
        </mxCell>
      </root>
    </mxGraphModel>
  </diagram>
</mxfile>
